<?xml version="1.0" standalone="no"?>
<!DOCTYPE svg PUBLIC "-//W3C//DTD SVG 20010904//EN"
 "http://www.w3.org/TR/2001/REC-SVG-20010904/DTD/svg10.dtd">
<svg version="1.0" xmlns="http://www.w3.org/2000/svg"
 width="164.000000pt" height="205.000000pt" viewBox="0 0 164.000000 205.000000"
 preserveAspectRatio="xMidYMid meet">
<metadata>
Created by potrace 1.10, written by Peter Selinger 2001-2011
</metadata>
<g transform="translate(0.000000,205.000000) scale(0.100000,-0.100000)"
fill="#1ea4d7" stroke="none">
<path d="M714 2023 c-67 -22 -76 -29 -140 -105 -38 -45 -87 -110 -110 -145
-33 -52 -56 -74 -129 -123 l-90 -60 -20 -96 -20 -96 -64 -24 c-46 -17 -74 -22
-99 -18 -37 7 -38 1 -4 -38 11 -13 14 -38 13 -89 -2 -71 18 -164 45 -206 22
-34 54 -125 54 -153 0 -23 27 -65 105 -166 14 -19 37 -34 56 -38 34 -6 99 -67
99 -92 0 -9 -5 -24 -10 -35 -9 -16 -22 -19 -95 -19 -84 0 -86 -1 -125 -36 -25
-23 -40 -45 -40 -60 0 -27 29 -47 51 -33 24 15 66 10 114 -13 25 -12 45 -25
45 -29 0 -3 -18 -18 -40 -33 -22 -14 -47 -37 -55 -50 -15 -22 -15 -28 -1 -53
8 -15 32 -45 53 -66 l39 -37 113 -7 c106 -6 114 -8 124 -30 13 -29 29 -29 105
2 104 42 183 29 235 -39 15 -20 34 -36 42 -36 7 0 29 26 48 58 20 31 46 67 60
80 28 27 191 123 259 153 39 17 59 37 110 108 70 98 85 140 94 255 3 44 13
103 21 130 10 32 13 66 10 99 -7 56 7 76 52 77 17 0 22 4 17 16 -3 9 -6 21 -6
29 0 13 -78 48 -135 61 -16 4 -62 20 -102 36 -39 15 -85 28 -102 28 l-31 0 0
73 c0 59 -5 79 -25 112 -24 39 -36 135 -17 135 12 0 132 110 132 120 0 5 -39
41 -87 81 -83 67 -143 146 -143 185 0 25 -33 33 -88 22 -59 -12 -63 -9 -100
63 -17 34 -20 35 -38 22 -32 -23 -67 -13 -74 22 -4 17 -13 42 -21 56 l-14 26
-71 -24z m82 -48 c19 -51 44 -70 79 -61 14 4 28 1 34 -6 63 -77 55 -73 121
-73 l63 0 30 -58 c22 -41 54 -78 108 -125 43 -37 78 -74 78 -83 1 -9 -26 -41
-59 -71 -56 -51 -60 -58 -60 -99 0 -28 9 -61 25 -91 18 -33 25 -63 25 -101 0
-67 12 -83 75 -101 111 -31 278 -94 293 -111 10 -10 11 -15 4 -11 -7 4 -24 -5
-42 -23 -27 -26 -30 -35 -24 -69 4 -24 0 -61 -9 -93 -8 -30 -18 -91 -21 -135
-9 -115 -25 -160 -91 -252 -49 -69 -67 -85 -119 -111 -180 -90 -244 -136 -296
-213 l-44 -68 -38 40 c-62 64 -137 75 -242 36 l-64 -24 -31 22 c-25 19 -49 24
-133 30 l-103 6 -43 45 c-23 25 -42 54 -42 64 0 11 21 37 46 59 36 31 45 44
40 60 -10 30 -87 64 -135 61 -48 -4 -56 2 -42 30 19 34 64 51 140 51 64 0 71
2 91 27 38 48 8 107 -76 149 -68 34 -152 142 -167 214 -5 25 -24 77 -42 115
-46 99 -53 128 -57 232 l-4 92 68 22 c37 12 73 28 79 35 6 8 21 53 33 101 21
87 21 87 76 125 99 68 121 89 164 156 74 114 160 204 219 229 28 12 57 23 64
23 6 0 19 -20 29 -45z"/>
</g>
</svg>
